<?xml version="1.0" encoding="UTF-8" standalone="no"?><!DOCTYPE svg PUBLIC "-//W3C//DTD SVG 1.1//EN" "http://www.w3.org/Graphics/SVG/1.1/DTD/svg11.dtd"><svg width="100%" height="100%" viewBox="0 0 833 200" version="1.1" xmlns="http://www.w3.org/2000/svg" xmlns:xlink="http://www.w3.org/1999/xlink" xml:space="preserve" xmlns:serif="http://www.serif.com/" style="fill-rule:evenodd;clip-rule:evenodd;stroke-linejoin:round;stroke-miterlimit:1.41421;"><rect id="logo" x="0" y="0" width="833" height="200" style="fill:none;"/><g><text x="148.564px" y="172.438px" style="font-family:'ArialMT', 'Arial', sans-serif;font-size:34.469px;">L<tspan x="168.354px 188.145px 198.342px 227.676px 247.466px 255.745px 275.535px 287.634px 297.831px 308.028px 327.819px 345.674px 365.465px 385.255px 393.534px 413.324px 433.115px 443.312px 463.102px 473.3px 483.497px 503.287px 523.078px 540.933px 551.13px 580.464px 600.254px 608.533px 628.323px 640.422px 660.213px 678.068px 688.265px 717.599px 737.389px 749.488px 767.343px 787.134px " y="172.438px 172.438px 172.438px 172.438px 172.438px 172.438px 172.438px 172.438px 172.438px 172.438px 172.438px 172.438px 172.438px 172.438px 172.438px 172.438px 172.438px 172.438px 172.438px 172.438px 172.438px 172.438px 172.438px 172.438px 172.438px 172.438px 172.438px 172.438px 172.438px 172.438px 172.438px 172.438px 172.438px 172.438px 172.438px 172.438px 172.438px 172.438px ">a mejor tecnología, Las mejores marcas</tspan></text><path d="M103.884,78.811c0.104,-1.055 0.194,-2.111 0.312,-3.165c1.01,-9.078 4.301,-17.249 9.831,-24.508c4.312,-5.659 9.613,-10.178 15.877,-13.554c2.471,-1.332 5.462,-0.381 6.615,2.142c0.31,0.679 0.462,1.479 0.485,2.23c0.064,2.11 0.031,4.223 0.02,6.334c-0.009,1.842 -0.773,3.265 -2.323,4.302c-7.374,4.932 -12.403,11.634 -14.399,20.288c-3.027,13.123 0.525,24.406 10.383,33.582c4.893,4.554 10.785,7.273 17.401,8.228c9.975,1.441 18.953,-1.012 26.748,-7.418c6.391,-5.252 10.462,-12.003 11.833,-20.167c1.968,-11.724 -1.332,-21.898 -9.726,-30.333c-1.542,-1.549 -3.354,-2.849 -5.131,-4.141c-1.538,-1.118 -2.352,-2.52 -2.351,-4.409c0,-2.02 -0.002,-4.04 0.001,-6.06c0.006,-4.146 3.853,-6.447 7.448,-4.4c13.098,7.459 21.525,18.494 24.61,33.262c2.969,14.209 0.087,27.38 -8.454,39.143c-7.177,9.885 -16.842,16.191 -28.737,19.037c-2.908,0.696 -5.863,1.078 -8.849,1.269c-4.425,0 -4.848,-0.082 -4.994,-0.089c-3.143,-0.161 -6.242,-0.622 -9.287,-1.414c-11.063,-2.878 -20.102,-8.856 -27.084,-17.889c-5.592,-7.234 -8.884,-15.434 -9.913,-24.529c-0.118,-1.036 -0.211,-2.076 -0.316,-3.113l0,-4.628Z" style="fill:#cad442;fill-rule:nonzero;"/><path d="M154.345,20.308c0.368,0.093 0.738,0.182 1.105,0.279c3.749,0.995 6.343,4.311 6.347,8.219c0.015,13.843 0.017,27.686 0,41.529c-0.006,4.354 -3.23,7.968 -7.455,8.457c-4.43,0.512 -8.366,-2.168 -9.401,-6.444c-0.175,-0.723 -0.247,-1.488 -0.248,-2.234c-0.014,-13.696 -0.011,-27.392 -0.009,-41.088c0.001,-4.419 2.868,-7.838 7.213,-8.616c0.085,-0.015 0.163,-0.067 0.244,-0.102l2.204,0Z" style="fill:#cad442;fill-rule:nonzero;"/><text x="202.44px" y="133.16px" style="font-family:'Arial-BoldMT', 'Arial', sans-serif;font-weight:700;font-size:148.725px;fill:#0b4d87;">GISTICA</text><text x="21.559px" y="130.473px" style="font-family:'Arial-BoldMT', 'Arial', sans-serif;font-weight:700;font-size:148.725px;fill:#0b4d87;">L</text></g></svg>